<?xml version="1.0" encoding="UTF-8"?>
<svg width="266px" height="301px" viewBox="0 0 266 301" version="1.1" xmlns="http://www.w3.org/2000/svg" xmlns:xlink="http://www.w3.org/1999/xlink">
    <title>Logo</title>
    <g id="Logo" stroke="none" stroke-width="1" fill="none" fill-rule="evenodd">
        <path d="M138.991981,21 C154.81235,21.2342831 167.976744,23.1085482 178.485164,26.6227951 C196.384122,32.5970149 210.876504,43.5497512 221.96231,59.4810041 C230.85405,72.3665762 236.9166,86.3064224 240.14996,101.300543 C243.38332,116.294663 245,130.585934 245,144.174355 C245,178.613976 238.186848,207.782225 224.560545,231.679104 C206.084202,263.893035 177.561347,280 138.991981,280 L138.991981,280 L29,280 L29,21 Z M126.248725,44 L56,44 L56,257 L119.264603,257 C130.225795,257 140.386723,256.036635 149.747387,254.109905 C159.108051,252.183175 167.231943,248.618725 174.119064,243.416554 C180.230171,238.888738 185.32276,233.301221 189.396832,226.654003 C195.798944,216.635007 199,205.315468 199,192.695387 C199,180.460651 196.211201,170.056309 190.633603,161.482361 C185.056006,152.908412 176.786611,146.64654 165.825419,142.696744 C173.003544,139.035957 178.43564,134.989824 182.121704,130.558345 C188.71782,122.658752 192.015878,112.206242 192.015878,99.2008141 C192.015878,86.5807327 188.71782,75.7428765 182.121704,66.6872456 C171.160512,51.9477612 152.536186,44.385346 126.248725,44 L126.248725,44 Z" id="Mask-2" fill-opacity="0.250815" fill="#76A7FF" fill-rule="nonzero"></path>
        <g id="D-Group" transform="translate(7.000000, 0.000000)">
            <path d="M131.961914,284.177734 C172.624674,284.177734 202.695638,267.437826 222.174805,233.958008 C236.54069,209.12207 243.723633,178.807617 243.723633,143.014648 C243.723633,128.892253 242.019206,114.039388 238.610352,98.4560547 C235.201497,82.8727214 228.809896,68.3850911 219.435547,54.9931641 C207.748047,38.4358724 192.469076,27.0527344 173.598633,20.84375 C162.519857,17.1914062 148.640951,15.2434896 131.961914,15 L16,15 L16,284.177734 L131.961914,284.177734 Z" id="Path" stroke-opacity="0.5" stroke="#3A7DF5" stroke-width="12" fill-rule="nonzero"></path>
            <g id="Oval" fill="#3A7DF5">
                <circle cx="15.5" cy="15.5" r="12.5"></circle>
            </g>
            <g id="Oval" fill="#3A7DF5">
                <circle cx="15.5" cy="15.5" r="12.5"></circle>
            </g>
            <g id="Oval" fill="#3A7DF5">
                <circle cx="15.5" cy="15.5" r="12.5"></circle>
            </g>
            <g id="Oval" fill="#3A7DF5">
                <circle cx="15.5" cy="15.5" r="12.5"></circle>
            </g>
            <g id="Oval" transform="translate(116.000000, 0.000000)" fill="#3A7DF5">
                <circle cx="15.5" cy="15.5" r="12.5"></circle>
            </g>
            <g id="Oval" transform="translate(158.000000, 6.000000)" fill="#3A7DF5">
                <circle cx="15.5" cy="15.5" r="12.5"></circle>
            </g>
            <g id="Oval" transform="translate(203.000000, 40.000000)" fill="#3A7DF5">
                <circle cx="15.5" cy="15.5" r="12.5"></circle>
            </g>
            <g id="Oval" transform="translate(223.000000, 84.000000)" fill="#3A7DF5">
                <circle cx="15.5" cy="15.5" r="12.5"></circle>
            </g>
            <g id="Oval" transform="translate(228.000000, 129.000000)" fill="#3A7DF5">
                <circle cx="15.5" cy="15.5" r="12.5"></circle>
            </g>
            <g id="Oval" transform="translate(206.000000, 220.000000)" fill="#3A7DF5">
                <circle cx="15.5" cy="15.5" r="12.5"></circle>
            </g>
            <g id="Oval" transform="translate(116.000000, 270.000000)" fill="#3A7DF5">
                <circle cx="15.5" cy="15.5" r="12.5"></circle>
            </g>
            <g id="Oval" transform="translate(0.000000, 270.000000)" fill="#3A7DF5">
                <circle cx="15.5" cy="15.5" r="12.5"></circle>
            </g>
        </g>
        <g id="B-Points" transform="translate(43.000000, 31.000000)">
            <path d="M76.4949636,224 L15,224 L15,15 L83.2837259,15 C108.835873,15.3781095 126.939239,22.7985075 137.593824,37.261194 C144.005433,46.1467662 147.211238,56.7810945 147.211238,69.1641791 C147.211238,81.9253731 144.005433,92.181592 137.593824,99.9328358 C134.010867,104.281095 128.730718,108.251244 121.753379,111.843284 C132.407964,115.718905 140.446047,121.863184 145.867628,130.276119 C151.289209,138.689055 154,148.89801 154,160.902985 C154,173.28607 150.888484,184.393035 144.665452,194.223881 C140.70534,200.746269 135.755201,206.228856 129.815034,210.671642 C123.12056,215.776119 115.22391,219.273632 106.125082,221.164179 C97.0262552,223.054726 87.1495489,224 76.4949636,224 Z" id="Path" stroke-opacity="0.5" stroke="#D29E1F" stroke-width="5" fill-rule="nonzero"></path>
            <g id="Oval" fill="#D29E1F">
                <circle cx="15" cy="15" r="8.22580645"></circle>
            </g>
            <g id="Oval" transform="translate(68.000000, 0.000000)" fill="#D29E1F">
                <circle cx="15" cy="15" r="8.22580645"></circle>
            </g>
            <g id="Oval" transform="translate(124.000000, 22.000000)" fill="#D29E1F">
                <circle cx="15" cy="15" r="8.22580645"></circle>
            </g>
            <g id="Oval" transform="translate(132.000000, 56.000000)" fill="#D29E1F">
                <circle cx="15" cy="15" r="8.22580645"></circle>
            </g>
            <g id="Oval" transform="translate(122.000000, 85.000000)" fill="#D29E1F">
                <circle cx="15" cy="15" r="8.22580645"></circle>
            </g>
            <g id="Oval" transform="translate(107.000000, 98.000000)" fill="#D29E1F">
                <circle cx="15" cy="15" r="8.22580645"></circle>
            </g>
            <g id="Oval" transform="translate(131.000000, 115.000000)" fill="#D29E1F">
                <circle cx="15" cy="15" r="8.22580645"></circle>
            </g>
            <g id="Oval" transform="translate(139.000000, 149.000000)" fill="#D29E1F">
                <circle cx="15" cy="15" r="8.22580645"></circle>
            </g>
            <g id="Oval" transform="translate(128.000000, 181.000000)" fill="#D29E1F">
                <circle cx="15" cy="15" r="8.22580645"></circle>
            </g>
            <g id="Oval" transform="translate(112.000000, 197.000000)" fill="#D29E1F">
                <circle cx="15" cy="15" r="8.22580645"></circle>
            </g>
            <g id="Oval" transform="translate(92.000000, 206.000000)" fill="#D29E1F">
                <circle cx="15" cy="15" r="8.22580645"></circle>
            </g>
            <g id="Oval" transform="translate(62.000000, 209.000000)" fill="#D29E1F">
                <circle cx="15" cy="15" r="8.22580645"></circle>
            </g>
            <g id="Oval" transform="translate(0.000000, 209.000000)" fill="#D29E1F">
                <circle cx="15" cy="15" r="8.22580645"></circle>
            </g>
        </g>
    </g>
</svg>